HIERARCHY
ROOT hip
{
  OFFSET 0 0 0
  CHANNELS 6 Xposition Yposition Zposition Zrotation Yrotation Xrotation
  JOINT abdomen
  {
    OFFSET 0 20.6881 -0.73152
    CHANNELS 3 Zrotation Xrotation Yrotation
    JOINT chest
    {
      OFFSET 0 11.7043 -0.48768
      CHANNELS 3 Zrotation Xrotation Yrotation
      JOINT neck
      {
        OFFSET 0 22.1894 -2.19456
        CHANNELS 3 Zrotation Xrotation Yrotation
        JOINT head
        {
          OFFSET -0.24384 7.07133 1.2192
          CHANNELS 3 Zrotation Xrotation Yrotation
          JOINT leftEye
          {
            OFFSET 4.14528 8.04674 8.04672
            CHANNELS 3 Zrotation Xrotation Yrotation
            End Site
            {
              OFFSET 1 0 0
            }
          }
          JOINT rightEye
          {
            OFFSET -3.6576 8.04674 8.04672
            CHANNELS 3 Zrotation Xrotation Yrotation
            End Site
            {
              OFFSET 1 0 0
            }
          }
        }
      }
      JOINT rCollar
      {
        OFFSET -2.68224 19.2634 -4.8768
        CHANNELS 3 Zrotation Xrotation Yrotation
        JOINT rShldr
        {
          OFFSET -8.77824 -1.95073 1.46304
          CHANNELS 3 Zrotation Xrotation Yrotation
          JOINT rForeArm
          {
            OFFSET -28.1742 -1.7115 0.48768
            CHANNELS 3 Zrotation Xrotation Yrotation
            JOINT rHand
            {
              OFFSET -22.5879 0.773209 7.07136
              CHANNELS 3 Zrotation Xrotation Yrotation
              JOINT rThumb1
              {
                OFFSET -1.2192 -0.487915 3.41376
                CHANNELS 3 Zrotation Xrotation Yrotation
                JOINT rThumb2
                {
                  OFFSET -3.37035 -0.52449 3.41376
                  CHANNELS 3 Zrotation Xrotation Yrotation
                  End Site
                  {
                    OFFSET -1.78271 -1.18214 1.43049
                  }
                }
              }
              JOINT rIndex1
              {
                OFFSET -7.75947 0.938293 5.60832
                CHANNELS 3 Zrotation Xrotation Yrotation
                JOINT rIndex2
                {
                  OFFSET -2.54057 -0.884171 1.56538
                  CHANNELS 3 Zrotation Xrotation Yrotation
                  End Site
                  {
                    OFFSET -1.62519 -0.234802 1.16502
                  }
                }
              }
              JOINT rMid1
              {
                OFFSET -8.24714 1.18213 3.41376
                CHANNELS 3 Zrotation Xrotation Yrotation
                JOINT rMid2
                {
                  OFFSET -3.10165 -0.590103 1.0647
                  CHANNELS 3 Zrotation Xrotation Yrotation
                  End Site
                  {
                    OFFSET -2.48547 -0.328903 0.83742
                  }
                }
              }
              JOINT rRing1
              {
                OFFSET -8.82822 0.546677 1.51678
                CHANNELS 3 Zrotation Xrotation Yrotation
                JOINT rRing2
                {
                  OFFSET -2.60934 -0.819778 -0.0198488
                  CHANNELS 3 Zrotation Xrotation Yrotation
                  End Site
                  {
                    OFFSET -2.33842 -0.294052 0.168128
                  }
                }
              }
              JOINT rPinky1
              {
                OFFSET -8.27202 -0.0477905 -0.4584
                CHANNELS 3 Zrotation Xrotation Yrotation
                JOINT rPinky2
                {
                  OFFSET -1.82734 -0.647385 -0.700984
                  CHANNELS 3 Zrotation Xrotation Yrotation
                  End Site
                  {
                    OFFSET -1.69225 -0.51767 -0.607171
                  }
                }
              }
            }
          }
        }
      }
      JOINT lCollar
      {
        OFFSET 2.68224 19.2634 -4.8768
        CHANNELS 3 Zrotation Xrotation Yrotation
        JOINT lShldr
        {
          OFFSET 8.77824 -1.95073 1.46304
          CHANNELS 3 Zrotation Xrotation Yrotation
          JOINT lForeArm
          {
            OFFSET 28.1742 -1.7115 0.48768
            CHANNELS 3 Zrotation Xrotation Yrotation
            JOINT lHand
            {
              OFFSET 22.5879 0.773209 7.07136
              CHANNELS 3 Zrotation Xrotation Yrotation
              JOINT lThumb1
              {
                OFFSET 1.2192 -0.487915 3.41376
                CHANNELS 3 Zrotation Xrotation Yrotation
                JOINT lThumb2
                {
                  OFFSET 3.37035 -0.52449 3.41376
                  CHANNELS 3 Zrotation Xrotation Yrotation
                  End Site
                  {
                    OFFSET 1.78271 -1.18214 1.43049
                  }
                }
              }
              JOINT lIndex1
              {
                OFFSET 7.75947 0.938293 5.60832
                CHANNELS 3 Zrotation Xrotation Yrotation
                JOINT lIndex2
                {
                  OFFSET 2.54057 -0.884171 1.56538
                  CHANNELS 3 Zrotation Xrotation Yrotation
                  End Site
                  {
                    OFFSET 1.62519 -0.234802 1.16502
                  }
                }
              }
              JOINT lMid1
              {
                OFFSET 8.24714 1.18213 3.41376
                CHANNELS 3 Zrotation Xrotation Yrotation
                JOINT lMid2
                {
                  OFFSET 3.10165 -0.590103 1.0647
                  CHANNELS 3 Zrotation Xrotation Yrotation
                  End Site
                  {
                    OFFSET 2.48547 -0.328903 0.83742
                  }
                }
              }
              JOINT lRing1
              {
                OFFSET 8.82822 0.546677 1.51678
                CHANNELS 3 Zrotation Xrotation Yrotation
                JOINT lRing2
                {
                  OFFSET 2.60934 -0.819778 -0.0198488
                  CHANNELS 3 Zrotation Xrotation Yrotation
                  End Site
                  {
                    OFFSET 2.33842 -0.294052 0.168128
                  }
                }
              }
              JOINT lPinky1
              {
                OFFSET 8.27202 -0.0477905 -0.4584
                CHANNELS 3 Zrotation Xrotation Yrotation
                JOINT lPinky2
                {
                  OFFSET 1.82734 -0.647385 -0.700984
                  CHANNELS 3 Zrotation Xrotation Yrotation
                  End Site
                  {
                    OFFSET 1.69225 -0.51767 -0.607171
                  }
                }
              }
            }
          }
        }
      }
    }
  }
  JOINT rButtock
  {
    OFFSET -8.77824 4.35084 1.2192
    CHANNELS 3 Zrotation Xrotation Yrotation
    JOINT rThigh
    {
      OFFSET 0 -1.70687 -2.19456
      CHANNELS 3 Zrotation Xrotation Yrotation
      JOINT rShin
      {
        OFFSET 0 -36.8199 0.73152
        CHANNELS 3 Zrotation Xrotation Yrotation
        JOINT rFoot
        {
          OFFSET 0.73152 -45.1104 -5.12064
          CHANNELS 3 Zrotation Xrotation Yrotation
          End Site
          {
            OFFSET -1.1221 -3.69964 12.103
          }
        }
      }
    }
  }
  JOINT lButtock
  {
    OFFSET 8.77824 4.35084 1.2192
    CHANNELS 3 Zrotation Xrotation Yrotation
    JOINT lThigh
    {
      OFFSET 0 -1.70687 -2.19456
      CHANNELS 3 Zrotation Xrotation Yrotation
      JOINT lShin
      {
        OFFSET 0 -36.8199 0.73152
        CHANNELS 3 Zrotation Xrotation Yrotation
        JOINT lFoot
        {
          OFFSET -0.73152 -45.1104 -5.12064
          CHANNELS 3 Zrotation Xrotation Yrotation
          End Site
          {
            OFFSET 1.1221 -3.69964 12.103
          }
        }
      }
    }
  }
}
MOTION
Frames:	7
Frame Time:	0.00833333
-190.632 85.1237 16.436 0.0 0.0 0.0 0.435976 -0.0238512 0.0128202 0.121276 -0.0396247 0.0210496 -7.78036e-15 0.0 -4.34842e-17 -2.32951e-14 3.18055e-15 -1.21134e-16 -0.0 0.0 0.0 -0.0 0.0 0.0 -3.72859e-15 1.16475e-17 1.49089e-16 -8.07526e-14 -3.97569e-16 0.0 -1.39825e-12 4.26194e-13 9.54166e-15 -1.60646e-11 -3.87705e-13 -1.145e-13 -3.7886e-11 9.25094e-14 -2.00375e-13 -6.54383e-11 1.62208e-13 -3.32368e-13 -3.78824e-11 9.22361e-14 -2.06736e-13 7.73091 5.47488 0.417314 -3.78858e-11 9.22361e-14 -1.90833e-13 2.90554 0.965183 0.102902 -3.7889e-11 9.24349e-14 -1.94014e-13 10.2786 0.731801 0.0259123 -3.78943e-11 9.34288e-14 -1.84472e-13 2.22167 -0.733487 -0.20892 -3.92487e-15 1.2424e-17 -2.48481e-16 -8.26886e-14 8.69683e-17 -1.39149e-15 -1.40869e-12 -4.09894e-13 1.59028e-14 -1.60539e-11 4.69206e-13 -1.11319e-13 -3.7879e-11 1.30638e-13 -1.90833e-13 -6.54037e-11 2.3218e-13 -3.32368e-13 -3.78808e-11 1.308e-13 -1.81292e-13 -7.73091 5.47488 -0.417314 -3.78781e-11 1.30403e-13 -1.94014e-13 -2.90554 0.965183 -0.102902 -3.78788e-11 1.30403e-13 -1.94809e-13 -10.2786 0.731801 -0.0259123 -3.78705e-11 1.33981e-13 -2.06736e-13 -2.22167 -0.733487 0.20892 -2.03217e-16 0.0 -3.88251e-19 0.651862 -4.71111 -0.0694721 -0.000843217 2.99809 0.00382659 -0.326252 1.72324 0.0697713 2.03217e-16 0.0 3.88251e-19 0.0330223 -2.68024 0.0231628 0.00579583 -0.679771 0.0505496 0.296281 3.37021 -0.0966971
-187.605 83.9465 0.254357 -171.284 1.3994 -172.736 3.38334 -0.497362 -0.241229 1.29825 -6.60579 0.549572 -1.39736 2.14119 -2.16226 -0.473663 9.78153 -0.0789374 -0.0 0.0 0.0 -0.0 0.0 0.0 -3.8341e-14 -5.50039e-14 1.0051e-13 16.877 15.0593 -6.42319 -5.37776 -2.72865 8.06742 0.0199009 -3.1316 -0.43775 -3.93176e-10 -8.00805e-12 6.36709e-10 -6.84197e-10 -7.65833e-12 1.0996e-09 -3.9317e-10 -8.00819e-12 6.36703e-10 7.73091 5.47488 0.417314 -3.93176e-10 -8.00811e-12 6.36716e-10 2.90554 0.965183 0.102902 -3.93175e-10 -8.00813e-12 6.36715e-10 10.2786 0.731801 0.0259123 -3.93185e-10 -8.00636e-12 6.36724e-10 2.22167 -0.733487 -0.20892 -3.84809e-14 -5.50058e-14 1.00154e-13 -21.8929 2.23883 9.0242 4.1715 -1.88581 -6.52592 -0.0182531 3.01558 -0.421734 -4.13114e-10 -1.09253e-09 -2.57125e-10 -7.18093e-10 -1.89166e-09 -4.40684e-10 -4.13116e-10 -1.09253e-09 -2.57114e-10 -7.73091 5.47488 -0.417314 -4.13114e-10 -1.09253e-09 -2.57124e-10 -2.90554 0.965183 -0.102902 -4.13118e-10 -1.09253e-09 -2.57125e-10 -10.2786 0.731801 -0.0259123 -4.1311e-10 -1.09253e-09 -2.57134e-10 -2.22167 -0.733487 0.20892 -2.03217e-16 0.0 -3.88251e-19 6.72674 -3.81176 2.99458 0.0535529 9.4382 0.147166 0.453913 -3.51719 0.671167 2.03217e-16 0.0 3.88251e-19 2.07228 -10.7257 -6.01091 -0.0473332 4.58037 -0.180338 0.514959 -4.05988 2.28305
-187.949 83.9111 -1.64848 -171.577 1.4982 -172.842 6.55977 -1.00588 -0.502276 2.65062 -13.5466 1.13018 -2.7231 4.40503 -4.44439 -0.921348 20.12 -0.142168 -0.0 0.0 0.0 -0.0 0.0 0.0 -7.62411e-14 -1.1648e-13 2.11563e-13 38.8531 30.3677 -14.773 -10.2519 -5.44614 16.6782 -0.0114456 -6.4529 -0.906479 -8.03572e-10 -7.55849e-12 1.34856e-09 -1.39877e-09 4.57169e-14 2.32888e-09 -8.03565e-10 -7.55859e-12 1.34855e-09 7.73091 5.47488 0.417314 -8.03574e-10 -7.55837e-12 1.34857e-09 2.90554 0.965183 0.102902 -8.03568e-10 -7.55862e-12 1.34857e-09 10.2786 0.731801 0.0259123 -8.03583e-10 -7.55595e-12 1.34858e-09 2.22167 -0.733487 -0.20892 -7.63187e-14 -1.16485e-13 2.11252e-13 -45.7921 4.36363 18.6343 8.11112 -3.79325 -13.4375 0.0112577 6.24093 -0.876827 -8.23416e-10 -2.30702e-09 -5.44139e-10 -1.43182e-09 -3.99451e-09 -9.3268e-10 -8.23418e-10 -2.30702e-09 -5.44127e-10 -7.73091 5.47488 -0.417314 -8.23416e-10 -2.30702e-09 -5.44134e-10 -2.90554 0.965183 -0.102902 -8.23423e-10 -2.30702e-09 -5.44135e-10 -10.2786 0.731801 -0.0259123 -8.23415e-10 -2.30702e-09 -5.4414e-10 -2.22167 -0.733487 0.20892 -2.03217e-16 0.0 -3.88251e-19 13.0924 -2.88971 6.24436 0.0743997 16.2147 0.304212 1.43376 -9.21984 1.43598 2.03217e-16 0.0 3.88251e-19 2.37533 -18.9724 -12.9115 -0.0568592 10.1045 -0.430721 1.45198 -11.9261 4.97231
-188.236 83.8712 -3.61772 -171.996 1.5285 -173.037 9.26546 -1.44427 -0.749538 4.03504 -19.731 1.69523 -3.70582 6.38688 -6.52291 -1.33002 29.3444 -0.267721 -0.0 0.0 0.0 -0.0 0.0 0.0 -1.07566e-13 -1.65035e-13 3.01231e-13 63.5621 42.4851 -25.6346 -13.8877 -7.53817 24.399 -0.0855006 -9.3926 -1.32911 -1.10375e-09 -2.42092e-11 1.91053e-09 -1.92172e-09 -2.32994e-11 3.29946e-09 -1.10375e-09 -2.4209e-11 1.91052e-09 7.73091 5.47488 0.417314 -1.10376e-09 -2.42088e-11 1.91053e-09 2.90554 0.965183 0.102902 -1.10375e-09 -2.42092e-11 1.91053e-09 10.2786 0.731801 0.0259123 -1.10377e-09 -2.42059e-11 1.91054e-09 2.22167 -0.733487 -0.20892 -1.07593e-13 -1.65042e-13 3.00959e-13 -67.7168 6.05361 27.216 11.2489 -5.36445 -19.6567 0.0798364 9.04477 -1.27936 -1.16359e-09 -3.27785e-09 -7.70993e-10 -2.02347e-09 -5.67546e-09 -1.32139e-09 -1.16359e-09 -3.27785e-09 -7.7098e-10 -7.73091 5.47488 -0.417314 -1.16358e-09 -3.27785e-09 -7.70985e-10 -2.90554 0.965183 -0.102902 -1.1636e-09 -3.27785e-09 -7.70986e-10 -10.2786 0.731801 -0.0259123 -1.16359e-09 -3.27785e-09 -7.70987e-10 -2.22167 -0.733487 0.20892 -2.03217e-16 0.0 -3.88251e-19 18.5884 -2.0031 9.10794 0.058698 22.3179 0.462528 2.35268 -13.9912 1.92743 2.03217e-16 0.0 3.88251e-19 0.688906 -25.6076 -19.7738 -0.022804 15.0997 -0.663281 2.88035 -18.7823 7.42232
-188.484 83.8719 -5.59685 -172.446 1.4411 -173.202 10.803 -1.70743 -0.962136 5.2251 -24.0309 2.13835 -4.17371 7.69808 -8.05769 -1.65186 35.7832 -0.546932 -0.0 0.0 0.0 -0.0 0.0 0.0 -1.22453e-13 -1.81287e-13 3.37437e-13 84.9047 49.046 -36.5426 -16.014 -8.70026 29.7022 -0.161529 -11.3804 -1.621 -1.12841e-09 -8.36105e-11 2.09778e-09 -1.96558e-09 -1.24267e-10 3.62331e-09 -1.1284e-09 -8.36096e-11 2.09778e-09 7.73091 5.47488 0.417314 -1.12841e-09 -8.36096e-11 2.09778e-09 2.90554 0.965183 0.102902 -1.1284e-09 -8.36102e-11 2.09779e-09 10.2786 0.731801 0.0259123 -1.12842e-09 -8.36068e-11 2.0978e-09 2.22167 -0.733487 -0.20892 -1.22458e-13 -1.81296e-13 3.37189e-13 -83.3746 7.25851 33.105 13.2572 -6.37039 -24.0711 0.145143 10.7969 -1.53581 -1.32842e-09 -3.63954e-09 -8.47446e-10 -2.30991e-09 -6.30168e-09 -1.45188e-09 -1.32842e-09 -3.63954e-09 -8.47433e-10 -7.73091 5.47488 -0.417314 -1.32842e-09 -3.63954e-09 -8.47437e-10 -2.90554 0.965183 -0.102902 -1.32843e-09 -3.63954e-09 -8.47437e-10 -10.2786 0.731801 -0.0259123 -1.32843e-09 -3.63954e-09 -8.47437e-10 -2.22167 -0.733487 0.20892 -2.03217e-16 0.0 -3.88251e-19 22.0986 -1.20716 11.0145 0.0227744 26.7384 0.599872 2.76772 -16.4454 1.65395 2.03217e-16 0.0 3.88251e-19 -1.82146 -29.4018 -24.8813 0.0275347 18.7735 -0.831088 4.02169 -23.2727 8.84209
-188.811 83.9269 -7.54211 -173.069 1.3123 -173.255 10.6892 -1.76758 -1.13901 6.06398 -25.6895 2.36016 -4.02642 8.06706 -8.82663 -1.91929 38.3553 -1.05361 -0.0 0.0 0.0 -0.0 0.0 0.0 -1.15465e-13 -1.45756e-13 2.92092e-13 94.4236 50.3267 -41.9551 -16.6568 -8.98252 31.5083 -0.193767 -12.0603 -1.72239 -6.49388e-10 -2.68249e-10 1.67373e-09 -1.13417e-09 -4.4795e-10 2.89229e-09 -6.4938e-10 -2.68246e-10 1.67372e-09 7.73091 5.47488 0.417314 -6.49393e-10 -2.68247e-10 1.67373e-09 2.90554 0.965183 0.102902 -6.49379e-10 -2.68248e-10 1.67373e-09 10.2786 0.731801 0.0259123 -6.49398e-10 -2.68245e-10 1.67374e-09 2.22167 -0.733487 -0.20892 -1.15494e-13 -1.45763e-13 2.91845e-13 -89.7236 8.19974 35.1642 14.0297 -6.75705 -25.8724 0.162926 11.0979 -1.58088 -1.23131e-09 -3.04238e-09 -6.72707e-10 -2.14025e-09 -5.26766e-09 -1.15075e-09 -1.23131e-09 -3.04238e-09 -6.72698e-10 -7.73091 5.47488 -0.417314 -1.23131e-09 -3.04238e-09 -6.72699e-10 -2.90554 0.965183 -0.102902 -1.23132e-09 -3.04238e-09 -6.727e-10 -10.2786 0.731801 -0.0259123 -1.23131e-09 -3.04238e-09 -6.72697e-10 -2.22167 -0.733487 0.20892 -2.03217e-16 0.0 -3.88251e-19 22.9363 -0.359429 11.6079 -0.00319332 28.592 0.687762 2.46878 -15.6707 0.386659 2.03217e-16 0.0 3.88251e-19 -3.49147 -30.1304 -26.4598 0.0573521 20.6699 -0.89862 4.02446 -24.4571 8.50322
-189.156 84.0341 -9.44362 -173.585 1.1707 -173.385 9.39821 -1.68074 -1.28971 6.61123 -25.4636 2.40248 -3.47992 7.77204 -9.04086 -2.19048 38.1617 -1.69274 -0.0 0.0 0.0 -0.0 0.0 0.0 -9.27989e-14 -7.35496e-14 1.88814e-13 93.5815 48.8421 -41.9033 -16.3577 -8.74351 30.7979 -0.18445 -11.8051 -1.68467 1.83775e-10 -5.39229e-10 8.17155e-10 3.12697e-10 -9.25282e-10 1.41493e-09 1.83782e-10 -5.39224e-10 8.17154e-10 7.73091 5.47488 0.417314 1.83769e-10 -5.39225e-10 8.17154e-10 2.90554 0.965183 0.102902 1.83783e-10 -5.39227e-10 8.17157e-10 10.2786 0.731801 0.0259123 1.83768e-10 -5.39226e-10 8.17164e-10 2.22167 -0.733487 -0.20892 -9.28845e-14 -7.35527e-14 1.88553e-13 -89.2666 9.09971 34.4727 14.0045 -6.75929 -25.7975 0.140825 10.3616 -1.47329 -9.47872e-10 -1.76537e-09 -3.20479e-10 -1.64617e-09 -3.0565e-09 -5.44661e-10 -9.47876e-10 -1.76537e-09 -3.20476e-10 -7.73091 5.47488 -0.417314 -9.47872e-10 -1.76537e-09 -3.20476e-10 -2.90554 0.965183 -0.102902 -9.47887e-10 -1.76537e-09 -3.20476e-10 -10.2786 0.731801 -0.0259123 -9.47873e-10 -1.76537e-09 -3.20473e-10 -2.22167 -0.733487 0.20892 -2.03217e-16 0.0 -3.88251e-19 21.8993 0.523064 11.2642 -0.00987628 28.6225 0.73335 1.84231 -12.5748 -1.54796 2.03217e-16 0.0 3.88251e-19 -4.19703 -28.8735 -25.3165 0.0606094 21.2936 -0.888982 3.14894 -23.2843 6.85977
